<svg width="24" height="24" viewBox="0 0 24 24" fill="none" xmlns="http://www.w3.org/2000/svg">
<path d="M23.9602 7.49767C23.6099 3.64176 20.8806 0.844212 17.4651 0.844212C15.1895 0.844212 13.106 2.06874 11.9337 4.03132C10.7719 2.04336 8.77378 0.84375 6.53473 0.84375C3.11961 0.84375 0.389913 3.6413 0.0400469 7.49721C0.012353 7.66753 -0.101192 8.56389 0.244059 10.0257C0.741626 12.1341 1.89092 14.0519 3.56687 15.5704L11.9281 23.1581L20.4329 15.5709C22.1089 14.0519 23.2582 12.1346 23.7557 10.0257C24.101 8.56435 23.9874 7.66799 23.9602 7.49767ZM22.8571 9.81427C22.4029 11.7399 21.35 13.4943 19.8153 14.8846L11.9337 21.9165L4.18721 14.8864C2.64974 13.4934 1.59737 11.7395 1.14273 9.81381C0.815938 8.4305 0.950253 7.64907 0.950715 7.64399L0.957638 7.59737C1.25766 4.21918 3.60287 1.76688 6.53473 1.76688C8.69808 1.76688 10.6025 3.09619 11.5062 5.23554L11.9313 6.24314L12.3564 5.23554C13.2459 3.12896 15.2509 1.76734 17.4655 1.76734C20.3969 1.76734 22.7426 4.21964 23.0486 7.64168C23.0495 7.64907 23.1838 8.43096 22.8571 9.81427Z" fill="black"/>
</svg>
