<svg width="28" height="28" viewBox="0 0 28 28" fill="none" xmlns="http://www.w3.org/2000/svg">
<g clip-path="url(#clip0)">
<path d="M13.6945 24.5603C13.6945 23.0858 12.4993 21.8906 11.0251 21.8906C9.55067 21.8906 8.35547 23.0858 8.35547 24.56C8.35547 26.0345 9.55067 27.2297 11.0251 27.2297C12.4985 27.2281 13.6929 26.0339 13.6945 24.5603ZM9.30233 24.5603C9.30233 23.6087 10.0735 22.8375 11.0251 22.8375C11.9765 22.8375 12.7476 23.6087 12.7476 24.56C12.7476 25.5116 11.9765 26.2828 11.0251 26.2828C10.074 26.2817 9.30338 25.5111 9.30233 24.5603Z" fill="black"/>
<path d="M20.9096 27.2297C22.3841 27.2299 23.5793 26.0347 23.5793 24.5603C23.5795 23.0858 22.3843 21.8906 20.9099 21.8906C19.4354 21.8906 18.2402 23.0858 18.2402 24.5603C18.2421 26.0337 19.436 27.2278 20.9096 27.2297ZM20.9096 22.8375C21.861 22.8375 22.6324 23.6087 22.6324 24.56C22.6327 25.5114 21.8612 26.2828 20.9099 26.2828C19.9585 26.2828 19.1871 25.5116 19.1871 24.5603C19.1882 23.6095 19.9588 22.8388 20.9096 22.8375Z" fill="black"/>
<path d="M0.473427 1.68906H3.36128C4.31157 1.68537 5.12184 2.37728 5.26662 3.31674L7.55265 17.7571C7.76849 19.1573 8.97636 20.1889 10.3932 20.1834H24.5236C24.7849 20.1834 24.9971 19.9712 24.9971 19.7099C24.9971 19.4484 24.7849 19.2365 24.5236 19.2365H10.3932C9.44292 19.2402 8.63265 18.548 8.48788 17.6089L8.09925 15.1537H22.5713C23.7966 15.1532 24.8872 14.377 25.2887 13.2196L27.9737 5.47041C28.0242 5.32563 28.0012 5.16553 27.9124 5.04057C27.8234 4.91587 27.6797 4.84164 27.5264 4.84164H6.46656L6.20185 3.16852C5.986 1.76832 4.77813 0.736662 3.36128 0.74221H0.473427C0.21188 0.74221 0 0.954354 0 1.21564C0 1.47718 0.21188 1.68906 0.473427 1.68906ZM26.8612 5.78875L24.3942 12.9095C24.1247 13.6859 23.3932 14.2066 22.5713 14.2069H7.94919L6.61636 5.78849L26.8612 5.78875Z" fill="black"/>
</g>
<defs>
<clipPath id="clip0">
<rect width="28" height="28" fill="white"/>
</clipPath>
</defs>
</svg>
